<svg xmlns="http://www.w3.org/2000/svg" viewBox="4 11.7 36.8 37.8">
<!-- GloBuy icon mark, extracted from full logo SVG -->
  <path d="m23.6 28.9v2.1l-0.9 2.1h8.8c-0.4 2.8-3.4 6.4-8.6 6.5-4.6 0.1-9-3.4-9.2-8.6-0.2-4.3 3.6-9.1 8.6-9.5 3-0.1 5.3 0.8 7.6 3.3l3.8-3c-2.6-3-6.1-5.2-10.9-5.2-7 0-12.7 5-13.8 11.6-0.9 6.5 2.6 15.4 12.9 16 6.1 0.2 12-2.9 13.7-8.1 0.7-2.1 1-4.7 0.8-7.2h-12.8z" fill="#0A1228"/>
  <path d="m27.9 35.4c0.3-0.8 0.4-1.5 0.5-2.3h-1.1c-0.1 0.6-0.2 1.4-0.5 1.9-0.8-0.2-1.9-0.5-3.3-0.6v-1.5-2.6-3.5c0.9-0.1 2.1-0.2 3.3-0.6 0.3 0.9 0.5 1.8 0.6 2.7h1.1c-0.1-1-0.3-2-0.6-3 0.7-0.3 1.3-0.6 2-1l-0.8-0.9c-0.5 0.3-1 0.6-1.6 0.8-0.4-1-1-1.9-1.7-2.8-0.8-0.2-1.6-0.4-2.3-0.4h-1.5c-0.6 0-1.4 0.1-2.1 0.3-0.6 0.8-1.1 1.6-1.6 2.8-0.6-0.3-1.1-0.5-1.6-0.9l-0.9 0.9c0.6 0.4 1.3 0.8 2.1 1.1-0.4 1.3-0.6 2.7-0.6 4.1h-3.5l-0.1 1.3h3.6c0 1.4 0.3 2.7 0.6 4.1-0.7 0.3-1.3 0.7-1.9 1.1l0.6 0.8c0.5-0.3 1.1-0.6 1.7-0.8 0.4 1 1 2 1.6 2.7 1.1 0.2 1.6 0.3 2.2 0.3h1.4c0.6 0 1.4-0.1 2.2-0.3 0.6-0.7 1.3-1.7 1.8-2.7 0.5 0.2 1.1 0.5 1.7 0.8l0.7-0.7c-0.5-0.4-1.3-0.8-2-1.1zm-4.4-13.8c1.1 0.6 2.3 2.1 2.9 3.5-1 0.3-2 0.5-2.9 0.6v-4.1zm-1.3 0v4.1c-1 0-1.9-0.2-2.9-0.5 0.6-1.5 2.1-3.2 2.9-3.6zm-3.4 4.6c0.9 0.3 2.3 0.6 3.4 0.6v3.1h-3.9c0.1-1.3 0.2-2.6 0.5-3.7zm0.1 8.8c-0.4-1.1-0.5-2.4-0.5-3.8h3.8v3.2c-1.1 0-2.3 0.3-3.3 0.6zm0.4 0.9c0.7-0.2 1.9-0.4 2.9-0.4v4c-0.8-0.3-2.4-1.9-2.9-3.6zm4.2 3.5v-3.9c0.8 0 2.1 0.2 2.9 0.5-0.6 1.4-1.7 2.8-2.9 3.4z" fill="#1EC6AA"/>
</svg>
