<?xml version="1.0" encoding="UTF-8"?>
<!-- Generator: visioncortex VTracer 0.6.12 -->
<svg version="1.1" xmlns="http://www.w3.org/2000/svg" viewBox="38.7 415.5 1037.3 289.3">
<path d="M0 0 C124.56 0 124.56 0 145 20 C153.24 29.76 158.41 41.31 158.31 54.19 C158.31 54.93 158.3 55.67 158.3 56.44 C158.02 70.09 153.79 80.77 144.48 90.67 C138.01 96.75 130.81 99.69 122.37 102.14 C120 103 120 103 119 105 C119.35 105 119.35 105 121.13 104.97 C133.61 105.35 143.95 110.95 152.82 119.56 C164.56 132.69 166.99 146.45 166.22 163.51 C164.8 179.56 156.89 192.39 144.96 202.86 C106.23 230.94 33.89 217 0 217 C0 145.39 0 73.78 0 0 Z M45 37 C45 54.82 45 72.64 45 91 C52.18 91.1 59.36 91.21 66.75 91.31 C67.87 91.34 67.87 91.34 73.54 91.45 C86.71 91.61 96.62 90.95 107 82 C113.2 73.67 113.99 66.11 113 56 C111.18 49.51 107.86 45.19 102.45 41.25 C95.05 37.47 88.3 36.57 80.06 36.71 C79.16 36.71 78.27 36.71 77.35 36.72 C74.04 36.73 70.74 36.77 67.44 36.81 C60.03 36.87 52.63 36.94 45 37 Z M45 122 C45 141.47 45 160.94 45 181 C48.85 181.03 48.85 181.03 68.31 181.19 C70.72 181.21 73.12 181.24 75.6 181.27 C77.54 181.28 79.48 181.29 81.43 181.29 C82.41 181.31 83.39 181.32 84.4 181.34 C93.72 181.34 104.29 179.66 112 174 C118.11 167.67 121 162.05 121.38 153.25 C121.21 145.02 118.62 137.68 112.96 131.6 C103.32 123.74 92.19 121.68 80.16 121.8 C79.26 121.81 78.36 121.81 77.44 121.81 C74.13 121.82 70.81 121.85 67.5 121.88 C60.08 121.92 52.65 121.96 45 122 Z " fill="#020202" transform="translate(544,424)"/>
<path d="M0 0 C4.33 4.05 8.55 8.2 12.69 12.44 C8.68 16.61 4.38 20.25 -0.12 23.88 C-0.8 24.42 -1.47 24.97 -2.17 25.53 C-4.2 27.18 -6.26 28.81 -8.31 30.44 C-8.67 30.73 -8.67 30.73 -10.5 32.18 C-11.21 32.73 -11.91 33.28 -12.64 33.85 C-13.27 34.35 -13.9 34.84 -14.56 35.36 C-16.31 36.44 -16.31 36.44 -19.31 36.44 C-20.66 34.78 -21.99 33.11 -23.31 31.44 C-38.78 17.69 -56.59 10.78 -77.37 11.2 C-84.39 11.62 -91.35 12.48 -98.31 13.44 C-98.31 14.1 -98.31 14.76 -98.31 15.44 C-99.15 15.86 -99.98 16.29 -100.84 16.72 C-107.16 20.02 -112.86 23.3 -118.31 27.96 C-120.54 29.61 -122.73 30.45 -125.31 31.44 C-129.13 34.62 -129.13 34.62 -129.72 37.29 C-130.47 40.01 -131.79 41.64 -133.5 43.88 C-142.15 55.94 -146.91 69.25 -146.81 84.06 C-146.81 84.59 -146.81 84.59 -146.8 87.25 C-146.37 105.93 -138.61 122.3 -125.31 135.44 C-125.01 135.75 -125.01 135.75 -123.49 137.33 C-117.4 143.19 -109.9 146.89 -102.31 150.44 C-101.35 150.9 -100.39 151.36 -99.4 151.83 C-91.68 154.84 -83.96 154.81 -75.75 154.88 C-74.61 154.89 -73.48 154.9 -72.31 154.91 C-53.02 154.71 -33.99 147.2 -20.31 133.44 C-12.74 124.9 -7.55 114.61 -5.31 103.44 C-26.43 103.44 -47.55 103.44 -69.31 103.44 C-69.31 92.43 -68.92 81.43 -68.31 70.44 C-34.65 70.44 -0.99 70.44 33.69 70.44 C37.19 84.45 34.91 100.53 31.69 114.44 C31.42 115.7 31.15 116.96 30.88 118.25 C25.36 141.76 11 161.18 -9.25 174.2 C-36.96 190.86 -70.53 197.26 -102.31 190.44 C-103.49 190.19 -104.67 189.95 -105.89 189.7 C-130.52 183.88 -153.54 168.79 -167.31 147.31 C-180.51 125.9 -186.42 104.23 -186.56 79.25 C-186.57 78.16 -186.58 77.06 -186.59 75.94 C-186.48 48.12 -173.24 23.06 -154.44 3.19 C-111.99 -37.34 -43.67 -40.09 0 0 Z " fill="#0B1329" transform="translate(225.3125,455.5625)"/>
<path d="M0 0 C15.18 0 30.36 0 46 0 C50.5 11.25 50.5 11.25 52.03 15.95 C52.37 17 52.71 18.05 53.07 19.13 C53.43 20.24 53.78 21.34 54.15 22.48 C54.53 23.65 54.92 24.82 55.31 26.03 C56.52 29.75 57.73 33.47 58.94 37.19 C60.14 40.88 61.34 44.57 62.55 48.27 C63.32 50.64 64.09 53.02 64.87 55.39 C66.86 61.51 68.86 67.63 70.91 73.74 C76.01 88.97 79.76 104.27 83 120 C83.71 117.6 84.42 115.21 85.12 112.81 C85.35 112.07 85.57 111.32 85.79 110.56 C86.94 106.68 88.07 102.8 89.11 98.9 C94.16 80.19 100.64 61.92 106.87 43.59 C108.14 39.85 109.4 36.11 110.67 32.37 C112.18 27.9 113.69 23.43 115.21 18.96 C115.49 18.11 115.78 17.26 116.08 16.39 C116.88 14 117.69 11.62 118.5 9.24 C118.62 8.88 118.62 8.88 119.23 7.09 C120.89 2.23 120.89 2.23 122 0 C137.18 0 152.36 0 168 0 C161.12 19.5 161.12 19.5 158.14 27.18 C157.81 28.07 157.47 28.95 157.12 29.86 C156.39 31.74 155.67 33.62 154.94 35.5 C152.95 40.68 150.96 45.85 148.98 51.03 C148.56 52.1 148.15 53.17 147.73 54.28 C143.75 64.65 139.8 75.04 135.85 85.43 C132.67 93.83 129.47 102.22 126.28 110.62 C125.41 112.93 124.53 115.24 123.65 117.56 C120.85 124.93 118.05 132.3 115.24 139.67 C114.35 142.01 113.46 144.35 112.57 146.7 C108.18 158.24 103.75 169.77 99.1 181.21 C98.92 181.66 98.92 181.66 98 183.93 C92.16 198.21 83.35 210.33 69 217 C50.43 223.76 33.13 222.84 14 219 C14.62 211.58 16.19 204.64 18.06 197.44 C18.34 196.33 18.63 195.23 18.92 194.09 C19.61 191.39 20.3 188.7 21 186 C21.69 186.02 22.37 186.04 23.08 186.06 C26.22 186.15 29.36 186.2 32.5 186.25 C33.04 186.27 33.04 186.27 35.77 186.35 C42.23 186.43 47.76 186.14 53 182 C57.99 175.24 59.96 165.28 59 157 C57.94 153.26 56.52 149.67 55.1 146.05 C54.68 144.96 54.27 143.87 53.84 142.75 C52.68 139.75 51.52 136.76 50.36 133.76 C49.12 130.57 47.9 127.38 46.67 124.19 C46.16 122.86 45.65 121.54 45.15 120.21 C44.89 119.54 44.63 118.87 44.37 118.18 C43.57 116.11 42.78 114.04 41.98 111.97 C37.99 101.61 34.05 91.22 30.14 80.83 C29.85 80.07 29.57 79.32 29.27 78.54 C27.56 73.99 25.85 69.45 24.14 64.9 C22.02 59.24 19.89 53.58 17.76 47.92 C17 45.91 16.24 43.9 15.48 41.88 C12.93 35.1 10.37 28.32 7.79 21.55 C7.53 20.87 7.27 20.19 7 19.49 C5.76 16.23 4.53 12.98 3.28 9.73 C2.85 8.6 2.42 7.46 1.97 6.29 C1.59 5.29 1.21 4.29 0.81 3.26 C0 1 0 1 0 0 Z " fill="#010101" transform="translate(908,481)"/>
<path d="M0 0 C15.63 14.71 23.76 34.81 24.5 56.12 C24.73 68.25 24.68 79.97 21.21 91.69 C20.87 92.86 20.53 94.03 20.18 95.24 C14.11 114 2.03 129.37 -15.44 138.7 C-27.85 144.92 -39.85 147.23 -53.73 147.06 C-54.96 147.05 -56.18 147.04 -57.45 147.03 C-65.92 146.89 -73.71 146.4 -81.79 143.69 C-82.29 143.52 -82.29 143.52 -84.82 142.69 C-102.42 136.13 -116.04 123.11 -124.79 106.69 C-135.97 82.01 -137.21 53.98 -128.1 28.5 C-125.33 21.2 -121.52 14.92 -116.79 8.69 C-116.3 8.02 -115.8 7.36 -115.3 6.68 C-103.7 -7.9 -85.16 -16.63 -67 -18.74 C-42.24 -21.29 -19.37 -16.06 0 0 Z M-71.79 19.69 C-72.38 20.08 -72.96 20.47 -73.57 20.87 C-82.36 27.39 -86.85 38.21 -88.79 48.69 C-89.19 53.51 -89.21 58.29 -89.16 63.12 C-89.18 64.36 -89.19 65.59 -89.2 66.86 C-89.15 80.91 -86.21 94.01 -76.48 104.62 C-69.4 111.16 -60.55 113.06 -51.15 112.9 C-42.46 112.12 -35.59 107.97 -29.88 101.53 C-18.59 86.74 -18.68 67.46 -19.79 49.69 C-20.43 45.07 -21.84 40.92 -23.79 36.69 C-23.97 36.28 -23.97 36.28 -24.89 34.2 C-28.68 26.56 -34.69 19.75 -42.79 16.69 C-52.02 14.38 -63.92 13.79 -71.79 19.69 Z " fill="#010101" transform="translate(489.7890625,497.3125)"/>
<path d="M0 0 C14.19 0 28.38 0 43 0 C43.03 7 43.05 13.99 43.08 21.2 C43.1 25.65 43.13 30.1 43.16 34.56 C43.21 41.61 43.25 48.67 43.27 55.72 C43.29 61.42 43.32 67.11 43.37 72.8 C43.38 74.96 43.39 77.13 43.39 79.29 C43.41 106.04 43.41 106.04 51 116 C51 116.66 51 117.32 51 118 C51.28 118.13 51.28 118.13 52.69 118.81 C55 120 55 120 57.38 121.5 C64.8 125.74 72.65 126.19 80.94 124.35 C89.63 121.53 95.65 117.06 99.94 108.94 C103.13 102.27 103.16 95.57 103.21 88.32 C103.22 87.37 103.23 86.41 103.24 85.42 C103.27 82.27 103.29 79.13 103.32 75.98 C103.34 73.79 103.36 71.6 103.38 69.41 C103.43 63.66 103.48 57.91 103.53 52.16 C103.59 45.25 103.66 38.35 103.72 31.44 C103.82 20.96 103.91 10.48 104 0 C118.19 0 132.38 0 147 0 C147 52.8 147 105.6 147 160 C133.47 160 119.94 160 106 160 C105.67 150.1 105.34 140.2 105 130 C103.02 133.63 101.04 137.26 99 141 C91.37 151.5 81.27 158.84 68.47 161.57 C50.48 163.8 34.78 161.58 19.57 151.37 C11.28 144.69 6.31 134.95 3 125 C2.73 124.2 2.46 123.39 2.18 122.56 C-1.13 110.69 -0.37 98.44 -0.29 86.23 C-0.29 83.74 -0.28 81.25 -0.28 78.75 C-0.27 72.23 -0.24 65.71 -0.21 59.19 C-0.17 52.52 -0.16 45.85 -0.15 39.18 C-0.11 26.12 -0.06 13.06 0 0 Z " fill="#000000" transform="translate(739,481)"/>
<path d="M0 0 C14.19 0 28.38 0 43 0 C43 71.28 43 142.56 43 216 C28.81 216 14.62 216 0 216 C0 144.72 0 73.44 0 0 Z " fill="#000000" transform="translate(284,425)"/>
<path d="M0 0 C1.08 1.71 1.08 1.71 2.25 3.94 C4.63 8.35 7.16 12.65 9.77 16.93 C11 19 11 19 12 21 C17.07 20.35 21.42 18.15 26 16 C27.38 17.29 28.71 18.63 30 20 C30 20.66 30 21.32 30 22 C30.66 22.33 31.32 22.66 32 23 C19.54 31 19.54 31 16 31 C16.29 32.15 16.58 33.29 16.88 34.47 C17.25 36 17.63 37.53 18 39.06 C18.19 39.81 18.38 40.57 18.58 41.34 C18.67 41.71 18.67 41.71 19.12 43.6 C19.29 44.27 19.46 44.95 19.63 45.64 C20.11 48.73 20 51.88 20 55 C41.12 55 62.24 55 84 55 C84 56.65 84 58.3 84 60 C83.67 58.68 83.34 57.36 83 56 C49.34 56 15.68 56 -19 56 C-19 55.67 -19 55.34 -19 55 C-9.1 55 0.8 55 11 55 C10.01 50.38 9.02 45.76 8 41 C7.84 39.85 7.84 39.85 7 34 C6.37 34.2 5.74 34.41 5.09 34.62 C-1.95 36.84 -8.33 38.05 -15.75 38.02 C-16.55 38.02 -17.35 38.01 -18.17 38.01 C-18.77 38.01 -19.38 38 -20 38 C-19.96 38.95 -19.93 39.91 -19.89 40.89 C-19.17 60.66 -18.83 80.24 -20 100 C-18.71 99.96 -17.42 99.92 -16.1 99.88 C-11 99.88 -6.37 100.8 -1.44 102 C-0.62 102.19 0.2 102.38 1.04 102.58 C3.03 103.04 5.02 103.52 7 104 C7.2 103.17 7.41 102.34 7.62 101.48 C7.89 100.39 8.16 99.31 8.44 98.19 C8.7 97.11 8.97 96.03 9.25 94.92 C9.76 92.93 10.35 90.95 11 89 C13.64 89 16.28 89 19 89 C19.17 92.98 19.03 96.33 18 100.19 C17 104 17 104 17 108 C21.29 110.31 25.58 112.62 30 115 C30 119 30 119 28.5 120.75 C28 121.16 27.51 121.58 27 122 C22 120.33 17 118.67 12 117 C11.58 117.77 11.15 118.55 10.71 119.34 C1.67 135.41 1.67 135.41 -5.31 138.44 C-6.2 138.62 -7.09 138.81 -8 139 C-8.66 139.33 -9.32 139.66 -10 140 C-12.34 139.72 -14.68 139.39 -17 139 C-16.34 138.36 -15.68 137.72 -15 137.06 C-7.72 129.72 -0.34 122.01 3 112 C1.42 111.71 -0.17 111.42 -1.75 111.12 C-2.63 110.96 -3.51 110.8 -4.42 110.63 C-9.61 109.72 -14.81 108.87 -20 108 C-20 118.56 -20 129.12 -20 140 C-23.3 140 -26.6 140 -30 140 C-30 129.77 -30 119.54 -30 109 C-33.8 109.33 -33.8 109.33 -53 111 C-48.81 122.25 -43.53 130.62 -34 138 C-34 138.33 -34 138.66 -34 139 C-35.9 138.91 -37.79 138.8 -39.69 138.69 C-40.74 138.63 -41.8 138.57 -42.89 138.51 C-47.54 137.75 -50.04 136.25 -52.91 132.51 C-53.48 131.58 -54.04 130.65 -54.62 129.69 C-55.22 128.71 -55.81 127.74 -56.42 126.73 C-61 118.81 -61 118.81 -61 116 C-61.89 116.46 -62.78 116.91 -63.7 117.38 C-64.87 117.96 -66.04 118.53 -67.25 119.12 C-68.41 119.71 -69.57 120.29 -70.77 120.88 C-74 122 -74 122 -76.36 121.49 C-78.55 119.5 -78.7 117.88 -79 115 C-77.21 113.85 -75.42 112.71 -73.62 111.56 C-72.63 110.92 -71.63 110.29 -70.6 109.63 C-68 108 -68 108 -66 107 C-66.5 102.56 -67.15 98.25 -68.06 93.88 C-69 88 -69 88 -69 74 C-78.57 74 -88.14 74 -98 74 C-98 70.7 -98 67.4 -98 64 C-88.43 64 -78.86 64 -69 64 C-69.08 61.73 -69.16 59.46 -69.25 57.12 C-69.41 47.74 -67.34 39.04 -65 30 C-65.71 29.9 -66.41 29.8 -67.14 29.69 C-70.41 28.9 -72.89 27.59 -75.81 25.94 C-76.79 25.39 -77.76 24.84 -78.77 24.28 C-79.51 23.86 -80.24 23.43 -81 23 C-79.43 19.68 -77.83 17.4 -75 15 C-74.01 15 -73.02 15 -72 15 C-72 15.66 -72 16.32 -72 17 C-71.3 17.27 -70.6 17.54 -69.88 17.81 C-66.84 19.07 -63.93 20.5 -61 22 C-60.85 21.45 -60.71 20.91 -60.55 20.35 C-58.92 14.86 -56.65 10.59 -53.3 5.95 C-52 4 -52 4 -51 1 C-50.34 1 -49.68 1 -49 1 C-49 0.34 -49 -0.32 -49 -1 C-33.55 -4.18 -14.82 -7.41 0 0 Z M-41 6 C-45.64 11.2 -50.08 16.64 -53 23 C-52.59 25.2 -52.59 25.2 -52 27 C-50.02 27.51 -48.04 28.01 -46.06 28.5 C-44.96 28.78 -43.86 29.06 -42.72 29.34 C-39 30 -39 30 -30 30 C-30 19.11 -30 8.22 -30 -3 C-33.52 -3 -38.61 3.67 -41 6 Z M-20 -3 C-20 7.89 -20 18.78 -20 30 C-15.14 29.31 -10.47 28.53 -5.69 27.5 C-5.08 27.37 -5.08 27.37 -2.01 26.72 C1 26 1 26 3 25 C0.9 16.13 -6.31 7.08 -13 1 C-14.16 0.34 -14.16 0.34 -20 -3 Z M-58 34 C-58.51 36.96 -59.01 39.92 -59.5 42.88 C-59.64 43.7 -59.79 44.52 -59.93 45.37 C-60 45.78 -60 45.78 -60.34 47.87 C-60.41 48.24 -60.41 48.24 -60.72 50.12 C-61.13 54.4 -61 58.71 -61 63 C-50.77 63 -40.54 63 -30 63 C-30 55.08 -30 47.16 -30 39 C-31.9 38.73 -33.8 38.46 -35.75 38.19 C-41.46 37.32 -46.97 36.09 -52.54 34.59 C-55 34 -55 34 -58 34 Z M-60 74 C-60.3 94.11 -60.3 94.11 -57 104 C-56.39 103.88 -55.78 103.76 -55.16 103.63 C-46.8 102.04 -38.44 101.01 -30 100 C-30 91.42 -30 82.84 -30 74 C-39.9 74 -49.8 74 -60 74 Z " fill="#24C5AB" transform="translate(176,470)"/>
</svg>
